<svg width="810.23376" height="267.29999" xmlns="http://www.w3.org/2000/svg"> <g id="logo_axini" transform="translate(-27.066251,-7.2)"> <rect id="1" height="183.7" width="75.099998" y="90.699997" x="419.89999" fill="#66f"/><polygon id="2" points="211.20001,90.700012 273.5,188.70001 211.20001,274.39999 261.29999,274.39999 296.89999,225.39999 328.10001,274.39999 411.59998,274.39999 341.39999,164.20001 394.90002,90.700012 344.79999,90.700012 318.10001,127.5 294.70001,90.700012 " fill="#66f"/><path id="3" d="m 495,44.8 c 0,20.7 -16.8,37.6 -37.6,37.6 -20.7,0 -37.6,-16.8 -37.6,-37.6 0,-20.8 16.8,-37.6 37.6,-37.6 20.8,0.1 37.6,16.9 37.6,37.6 z" fill="#66f"/><rect id="4" height="183.7" width="75.099998" y="90.699997" x="762.20001" fill="#66f"/><circle id="5" cy="44.799999" cx="799.70001" r="37.599998" fill="#66f"/><path id="6" d="m 603.6,115.8 0,-25 -83.5,0 0,183.7 83.5,0 0,-117 c 41.7,-41.7 50.1,-8.3 50.1,0 l 0,116.9 83.5,0 0,-116.9 C 737.1,32.3 603.6,115.8 603.6,115.8 Z" fill="#66f"/><path id="7" d="m 202.9,157.5 c 0,-125.2 -167,-50.1 -167,-50.1 l 16.7,33.4 c 62.9,-31.4 69.7,3.7 70.3,14.9 -107.8,2.1 -95.4,44.2 -95.4,66.7 0,23.1 11.8,52 37,52 34,0 52.8,0 63.1,-6.6 l 0,6.6 75.1,0 0.1,-108.5 -0.1,0 c 0.1,-2.7 0.2,-5.5 0.2,-8.4 z M 92.1,232.7 c -12.9,0 -19.2,-7 -19.2,-16.7 0,-9.7 6.5,-16.2 19.2,-18.3 35,-5.8 35.5,1.6 35.5,18.3 0,16.7 -22.6,16.7 -35.5,16.7 z" fill="#66f"/></g></svg>
