<?xml version="1.0" encoding="UTF-8"?>
<svg width="150px" height="93px" viewBox="0 0 150 93" version="1.1" xmlns="http://www.w3.org/2000/svg" xmlns:xlink="http://www.w3.org/1999/xlink">
    <g id="Page-1" stroke="none" stroke-width="1" fill="none" fill-rule="evenodd">
        <g id="logo-OF">
            <polygon id="Path" fill="#0084CB" points="0 0 0 93 150 93 150 0"></polygon>
            <path d="M72.06,58.38 C71.25,59.87 70.51,61.19 69.81,62.56 L72.73,62.56 L72.09,58.38 L72.06,58.38 Z" id="Shape"></path>
            <path d="M72.06,58.38 C71.25,59.87 70.51,61.19 69.81,62.56 L72.73,62.56 L72.09,58.38 L72.06,58.38 Z M29.27,26.96 C27.8693164,26.9928858 26.5416922,27.5917598 25.59,28.62 C23.52,30.62 22.18,34.32 22.18,37.93 C22.18,42.1 23.88,44.49 26.86,44.49 C28.2674343,44.4669581 29.6056562,43.8753991 30.57,42.85 C32.57,40.85 33.93,37.24 33.93,33.68 C33.93,29.15 32.4,26.96 29.27,26.96 Z M25.06,58.96 L24.6,59.01 C24.5991976,58.5409076 24.5387119,58.0738236 24.42,57.62 C24.27,57.22 24,57.04 22.85,57.04 L21.53,57.04 C21,57.04 20.95,57.14 20.85,57.68 L20.14,61.38 L21.82,61.38 C23.22,61.38 23.27,61.27 23.71,60.22 L24.18,60.22 L23.56,63.31 L23.11,63.31 C23.11,62.14 23.11,62.01 21.69,62.01 L20,62.01 L19.44,64.96 C19.2,66.31 19.31,66.43 20.78,66.54 L20.68,66.97 L16.42,66.97 L16.54,66.54 C17.73,66.43 17.86,66.33 18.12,64.96 L19.36,58.52 C19.62,57.12 19.57,57.07 18.28,56.93 L18.37,56.51 L25.37,56.51 C25.3,56.87 25.18,58.09 25.06,59.03 L25.06,58.96 Z M16.55,37.6 C16.5379376,33.8531862 18.0166172,30.2554258 20.66,27.6 C23.1216813,25.1901952 26.4352037,23.8496921 29.88,23.87 C35.57,23.87 39.56,27.97 39.56,33.87 C39.5635341,37.5641998 38.0910828,41.1067232 35.47,43.71 C33.0240476,46.1201647 29.7238552,47.4646875 26.29,47.45 C20.37,47.5 16.55,43.64 16.55,37.67 L16.55,37.6 Z M39.09,56.92 C37.84,57.05 37.75,57.14 37.53,58.31 L36.22,65.15 C35.98,66.4 36.08,66.49 37.4,66.59 L37.3,67.02 L33.17,67.02 L33.29,66.59 C34.54,66.49 34.66,66.38 34.9,65.15 L36.21,58.36 C36.43,57.19 36.32,57.1 34.98,56.97 L35.09,56.56 L39.19,56.56 L39.09,56.92 Z M39.58,45.41 L40.02,45.41 C42.53,45.24 42.63,45.23 43.29,41.85 L44.79,35.07 L50,35.07 C50,35.07 48.47,41.87 48.46,41.89 C48.4,42.22 48.35,42.53 48.29,42.8 C47.86,45.23 48.21,45.25 50.69,45.41 L51.14,45.41 L50.77,47.41 L39.2,47.41 L39.58,45.41 Z M59,56.99 C58,57.06 57.81,57.3 57.6,57.99 C57.3470561,58.8915773 57.1434209,59.8062662 56.99,60.73 L55.77,67.15 L55.29,67.15 L50.51,58.6 L50.46,58.6 L49.62,62.89 C49.4299426,63.7848622 49.2897268,64.6895884 49.2,65.6 C49.2,66.35 49.46,66.51 50.58,66.6 L50.48,67.03 L46.78,67.03 L46.88,66.6 C47.72,66.6 48.09,66.36 48.3,65.66 C48.5782494,64.7399538 48.8052646,63.8051854 48.98,62.86 L49.82,58.86 C49.98,58.04 49.93,57.81 49.72,57.46 C49.51,57.11 49.25,57.02 48.35,56.95 L48.45,56.54 L50.77,56.54 L55.53,64.75 L55.59,64.75 L56.33,60.75 C56.5280174,59.8389244 56.6749136,58.9174849 56.77,57.99 C56.82,57.24 56.56,57.08 55.37,56.99 L55.48,56.56 L59.11,56.56 L59,56.99 Z M64.89,48.3 L61.79,48.3 C58.07,48.1 56.56,46.51 55.42,44.18 C54.8111354,42.7691119 54.2770611,41.3271116 53.82,39.86 C53.82,39.86 53.55,39.02 53.54,39.01 C53.26,38.1 53.04,38.01 52.36,37.96 L51.91,37.96 L52.27,35.03 L53.27,35.03 C53.9520266,35.0050187 54.6263379,34.8768996 55.27,34.65 C57.0462066,33.948411 58.1823873,32.19797 58.1,30.29 C58.1,28.48 56.67,28.29 54.34,28.14 L46.02,28.07 C46.02,28.07 46.4,25.68 46.4,25.66 L46.58,24.78 L55.64,24.78 C60.85,24.78 63.49,26.69 63.49,30.46 C63.4885735,30.7782873 63.4618225,31.0959565 63.41,31.41 C62.99,33.81 60.98,35.83 58.13,36.73 C58.5,37.73 59.13,39.51 59.71,40.79 C60.2246345,42.0717648 60.8433689,43.3092335 61.56,44.49 C62.3201256,45.4587823 63.4152829,46.1080287 64.63,46.31 L65,46.31 L64.89,48.3 Z M75.89,67.04 L72,67.04 L72.11,66.61 C73.23,66.5 73.29,66.32 73.19,65.61 C73.09,64.9 72.95,64.15 72.79,63.22 L69.42,63.22 C69.15,63.73 68.65,64.67 68.29,65.41 C67.82,66.41 67.94,66.49 69.18,66.59 L69.08,67.02 L65.61,67.02 L65.73,66.59 C66.73,66.46 66.87,66.38 67.63,65.04 L72.48,56.44 L72.98,56.31 L73.44,59.17 C73.76,61.25 74.11,63.27 74.44,65.17 C74.63,66.31 74.75,66.46 75.89,66.57 L75.89,67.04 Z M97.24,56.99 C96.24,57.06 96.05,57.3 95.84,57.99 C95.5869553,58.8922166 95.3800206,59.8067342 95.22,60.73 L94,67.15 L93.51,67.15 L88.74,58.6 L88.69,58.6 L87.85,62.89 C87.6599426,63.7848622 87.5197268,64.6895884 87.43,65.6 C87.43,66.35 87.69,66.51 88.8,66.6 L88.71,67.03 L85,67.03 L85.1,66.6 C85.94,66.6 86.31,66.36 86.52,65.66 C86.7982494,64.7399538 87.0252646,63.8051854 87.2,62.86 L88.04,58.86 C88.2,58.04 88.15,57.81 87.94,57.46 C87.73,57.11 87.47,57.02 86.57,56.95 L86.66,56.54 L89,56.54 L93.76,64.75 L93.82,64.75 L94.56,60.75 C94.7580174,59.8389244 94.9049136,58.9174849 95,57.99 C95.05,57.24 94.79,57.08 93.59,56.99 L93.71,56.56 L97.34,56.56 L97.24,56.99 Z M104.1,28.25 L103.86,28.17 L80.89,28.17 C80.72,29.05 78.15,41.91 78.15,41.91 C78.09,42.25 78.03,42.55 77.98,42.83 C77.55,45.26 77.9,45.28 80.38,45.44 L80.84,45.44 L80.46,47.44 L68.93,47.44 L69.31,45.44 L69.75,45.44 C72.26,45.26 72.36,45.25 73.01,41.89 C73.01,41.89 75.33,29.2 75.5,28.34 C74.1163987,28.2081187 72.7215677,28.2551732 71.35,28.48 L71.15,28.75 C70.6383791,29.4537758 70.212066,30.2157684 69.88,31.02 L69.73,31.37 L67.64,31.37 L68.49,28.05 L69.49,24.05 L70.83,24.05 L70.93,24.28 C71.18,24.84 71.32,24.88 72.12,24.88 L105,24.88 C105.64,24.88 105.71,24.82 106.32,24.23 L106.52,24.05 L107.84,24.05 L107.75,24.52 C107.56,25.71 107.29,27.78 107.03,29.77 L106.83,31.21 L104.7,31.39 L104.7,30.93 C104.83,28.47 104.52,28.38 104.06,28.25 L104.1,28.25 Z M114.96,59.32 L114.48,59.37 C114.4,57.45 113.56,56.88 111.96,56.88 C109.12,56.88 107.2,59.61 107.2,62.59 C107.2,64.9 108.35,66.74 110.51,66.74 C112.12,66.74 113.08,65.64 113.96,64.24 L114.38,64.46 C114.023271,65.3063035 113.598548,66.1223074 113.11,66.9 C112.200513,67.1319288 111.268197,67.2627214 110.33,67.29 C109.065444,67.3890784 107.820432,66.9325488 106.919682,66.0394818 C106.018933,65.1464147 105.551756,63.9053582 105.64,62.64 C105.64,58.82 108.64,56.32 112.33,56.32 C113.275017,56.322842 114.211147,56.502606 115.09,56.85 C115,57.67 115,58.54 114.92,59.32 L114.96,59.32 Z M110.66,38.45 C110.615918,34.8860659 112.028124,31.458487 114.57,28.96 C117.609448,26.103979 121.639679,24.5406508 125.81,24.6 C127.866409,24.608505 129.909638,24.9288132 131.87,25.55 L132.15,25.64 L132.15,25.94 C132.09,27.77 131.95,29.7 131.82,31.34 L131.82,31.84 L129.72,31.96 L129.72,31.58 C129.5,28.41 128.17,27.05 125.28,27.05 C123.180134,27.0534136 121.169637,27.9001281 119.7,29.4 C117.530259,31.6855829 116.357565,34.7396242 116.44,37.89 C116.44,41.45 117.35,45.7 121.69,45.7 C124.22,45.7 126.1,44.28 128.41,40.7 L128.65,40.32 L130.24,40.84 L130.65,40.99 L129.65,43.26 C129.06,44.55 128.38,46.02 127.85,46.96 L127.72,47.18 L127.06,47.35 C125.084263,47.8834651 123.046489,48.1524783 121,48.15 C114.61,48.15 110.62,44.44 110.62,38.45 L110.66,38.45 Z M131.88,59.04 L131.41,59.04 C131.437708,58.5572923 131.366239,58.0740253 131.2,57.62 C131.03,57.25 130.82,57.07 129.64,57.07 L128.38,57.07 C127.83,57.07 127.8,57.13 127.67,57.73 L127.01,61.23 L128.56,61.23 C129.91,61.23 130.01,61.1 130.4,60.05 L130.86,60.05 L130.25,63.1 L129.8,63.1 C129.8,61.97 129.8,61.86 128.43,61.86 L126.88,61.86 L126.35,64.68 C126.17,65.62 126.19,66.04 126.43,66.23 C126.67,66.42 127.15,66.46 128.06,66.46 C129.25,66.46 129.74,66.33 130.17,65.91 C130.60119,65.4467657 130.964782,64.9249439 131.25,64.36 L131.7,64.52 C131.53,64.96 130.93,66.52 130.7,67 L123.15,67 L123.25,66.57 C124.56,66.46 124.69,66.37 124.94,65.07 L126.22,58.46 C126.48,57.17 126.4,57.08 125.07,56.96 L125.17,56.54 L132.17,56.54 C132.1,56.87 132,58.09 131.84,59.04 L131.88,59.04 Z" id="Shape" fill="#FFFFFF" fill-rule="nonzero"></path>
            <path d="M105.82,41.02 L103.77,40.62 L103.56,41.02 C103.030909,42.2027128 102.292367,43.2800359 101.38,44.2 C100.98,44.57 100.05,45.01 97.94,45.01 C96.55,45.01 95.87,44.87 95.59,44.52 C95.31,44.17 95.32,43.66 95.52,42.52 L95.58,42.25 C95.58,42.25 96.32,38.4 96.58,37.04 L98.41,37.04 C100.91,37.04 100.91,37.04 100.7,39.4 L100.7,39.83 L102.8,39.83 L103.85,34.44 L91.93,34.44 L90.5,41.91 C89.85,45.27 89.71,45.28 87.5,45.45 L87.09,45.45 L86.65,47.45 L103.37,47.45 L103.52,47.09 C104.13,45.71 105.52,41.9 105.64,41.47 L105.82,41.02 Z" id="Shape" fill="#F58025" fill-rule="nonzero"></path>
        </g>
    </g>
</svg>